# MagicaVoxel @ Ephtracy

# group
o 

# material
mtllib Wago5.mtl
usemtl palette

# normals
vn -1 0 0
vn 1 0 0
vn 0 0 1
vn 0 0 -1
vn 0 -1 0
vn 0 1 0

# texcoords
vt 0.255859 0.5
vt 0.986328 0.5

# verts
v 0 0.4 -0.3
v 0 0.4 -0.8
v 0 0.7 -0.3
v 0 0.7 -0.8
v 0.1 0.7 -0.3
v 0.1 0.7 -0.7
v 0.1 0.8 -0.3
v 0.1 0.8 -0.7
v 0.2 0.5 -0.3
v 0.2 0.5 -0.7
v 0.2 0.6 -0.3
v 0.2 0.6 -0.7
v 0.3 0.7 -0.3
v 0.3 0.7 -0.7
v 0.3 0.8 -0.3
v 0.3 0.8 -0.7
v 0.4 0.5 -0.3
v 0.4 0.5 -0.5
v 0.4 0.6 -0.3
v 0.4 0.6 -0.5
v 0.5 0.7 -0.3
v 0.5 0.7 -0.7
v 0.5 0.8 -0.3
v 0.5 0.8 -0.7
v 0.6 0.5 -0.3
v 0.6 0.5 -0.6
v 0.6 0.6 -0.3
v 0.6 0.6 -0.6
v 0.7 0.7 -0.3
v 0.7 0.7 -0.7
v 0.7 0.8 -0.3
v 0.7 0.8 -0.7
v 0.8 0.5 -0.3
v 0.8 0.5 -0.6
v 0.8 0.6 -0.3
v 0.8 0.6 -0.6
v 0.9 0.7 -0.3
v 0.9 0.7 -0.7
v 0.9 0.8 -0.3
v 0.9 0.8 -0.7
v 1 0.5 -0.3
v 1 0.5 -0.6
v 1 0.6 -0.3
v 1 0.6 -0.6
v 0.1 0.5 -0.3
v 0.1 0.5 -0.7
v 0.1 0.6 -0.3
v 0.1 0.6 -0.7
v 0.2 0.7 -0.3
v 0.2 0.7 -0.7
v 0.2 0.8 -0.3
v 0.2 0.8 -0.7
v 0.3 0.5 -0.3
v 0.3 0.5 -0.5
v 0.3 0.6 -0.3
v 0.3 0.6 -0.5
v 0.4 0.7 -0.3
v 0.4 0.7 -0.7
v 0.4 0.8 -0.3
v 0.4 0.8 -0.7
v 0.5 0.5 -0.3
v 0.5 0.5 -0.6
v 0.5 0.6 -0.3
v 0.5 0.6 -0.6
v 0.6 0.7 -0.3
v 0.6 0.7 -0.7
v 0.6 0.8 -0.3
v 0.6 0.8 -0.7
v 0.7 0.5 -0.3
v 0.7 0.5 -0.6
v 0.7 0.6 -0.3
v 0.7 0.6 -0.6
v 0.8 0.7 -0.3
v 0.8 0.7 -0.7
v 0.8 0.8 -0.3
v 0.8 0.8 -0.7
v 0.9 0.5 -0.3
v 0.9 0.5 -0.6
v 0.9 0.6 -0.3
v 0.9 0.6 -0.6
v 1 0.7 -0.3
v 1 0.7 -0.7
v 1 0.8 -0.3
v 1 0.8 -0.7
v 1.1 0.4 -0.3
v 1.1 0.4 -0.8
v 1.1 0.7 -0.3
v 1.1 0.7 -0.8
v 0 0.4 -0.3
v 0 0.7 -0.3
v 0.1 0.5 -0.3
v 0.1 0.6 -0.3
v 0.1 0.7 -0.3
v 0.1 0.8 -0.3
v 0.2 0.5 -0.3
v 0.2 0.6 -0.3
v 0.2 0.7 -0.3
v 0.2 0.8 -0.3
v 0.3 0.5 -0.3
v 0.3 0.6 -0.3
v 0.3 0.7 -0.3
v 0.3 0.8 -0.3
v 0.4 0.5 -0.3
v 0.4 0.6 -0.3
v 0.4 0.7 -0.3
v 0.4 0.8 -0.3
v 0.5 0.5 -0.3
v 0.5 0.6 -0.3
v 0.5 0.7 -0.3
v 0.5 0.8 -0.3
v 0.6 0.5 -0.3
v 0.6 0.6 -0.3
v 0.6 0.7 -0.3
v 0.6 0.8 -0.3
v 0.7 0.5 -0.3
v 0.7 0.6 -0.3
v 0.7 0.7 -0.3
v 0.7 0.8 -0.3
v 0.8 0.5 -0.3
v 0.8 0.6 -0.3
v 0.8 0.7 -0.3
v 0.8 0.8 -0.3
v 0.9 0.5 -0.3
v 0.9 0.6 -0.3
v 0.9 0.7 -0.3
v 0.9 0.8 -0.3
v 1 0.5 -0.3
v 1 0.6 -0.3
v 1 0.7 -0.3
v 1 0.8 -0.3
v 1.1 0.4 -0.3
v 1.1 0.7 -0.3
v 0.3 0.5 -0.5
v 0.3 0.6 -0.5
v 0.4 0.5 -0.5
v 0.4 0.6 -0.5
v 0.5 0.5 -0.6
v 0.5 0.6 -0.6
v 0.6 0.5 -0.6
v 0.6 0.6 -0.6
v 0.7 0.5 -0.6
v 0.7 0.6 -0.6
v 0.8 0.5 -0.6
v 0.8 0.6 -0.6
v 0.9 0.5 -0.6
v 0.9 0.6 -0.6
v 1 0.5 -0.6
v 1 0.6 -0.6
v 0.1 0.5 -0.7
v 0.1 0.6 -0.7
v 0.2 0.5 -0.7
v 0.2 0.6 -0.7
v 0.1 0.7 -0.7
v 0.1 0.8 -0.7
v 0.2 0.7 -0.7
v 0.2 0.8 -0.7
v 0.3 0.7 -0.7
v 0.3 0.8 -0.7
v 0.4 0.7 -0.7
v 0.4 0.8 -0.7
v 0.5 0.7 -0.7
v 0.5 0.8 -0.7
v 0.6 0.7 -0.7
v 0.6 0.8 -0.7
v 0.7 0.7 -0.7
v 0.7 0.8 -0.7
v 0.8 0.7 -0.7
v 0.8 0.8 -0.7
v 0.9 0.7 -0.7
v 0.9 0.8 -0.7
v 1 0.7 -0.7
v 1 0.8 -0.7
v 0 0.4 -0.8
v 0 0.7 -0.8
v 1.1 0.4 -0.8
v 1.1 0.7 -0.8
v 0 0.4 -0.3
v 1.1 0.4 -0.3
v 0 0.4 -0.8
v 1.1 0.4 -0.8
v 0.1 0.6 -0.3
v 0.2 0.6 -0.3
v 0.3 0.6 -0.3
v 0.4 0.6 -0.3
v 0.5 0.6 -0.3
v 0.6 0.6 -0.3
v 0.7 0.6 -0.3
v 0.8 0.6 -0.3
v 0.9 0.6 -0.3
v 1 0.6 -0.3
v 0.3 0.6 -0.5
v 0.4 0.6 -0.5
v 0.5 0.6 -0.6
v 0.6 0.6 -0.6
v 0.7 0.6 -0.6
v 0.8 0.6 -0.6
v 0.9 0.6 -0.6
v 1 0.6 -0.6
v 0.1 0.6 -0.7
v 0.2 0.6 -0.7
v 0.1 0.5 -0.3
v 0.2 0.5 -0.3
v 0.3 0.5 -0.3
v 0.4 0.5 -0.3
v 0.5 0.5 -0.3
v 0.6 0.5 -0.3
v 0.7 0.5 -0.3
v 0.8 0.5 -0.3
v 0.9 0.5 -0.3
v 1 0.5 -0.3
v 0.3 0.5 -0.5
v 0.4 0.5 -0.5
v 0.5 0.5 -0.6
v 0.6 0.5 -0.6
v 0.7 0.5 -0.6
v 0.8 0.5 -0.6
v 0.9 0.5 -0.6
v 1 0.5 -0.6
v 0.1 0.5 -0.7
v 0.2 0.5 -0.7
v 0 0.7 -0.3
v 0.1 0.7 -0.3
v 0.2 0.7 -0.3
v 0.3 0.7 -0.3
v 0.4 0.7 -0.3
v 0.5 0.7 -0.3
v 0.6 0.7 -0.3
v 0.7 0.7 -0.3
v 0.8 0.7 -0.3
v 0.9 0.7 -0.3
v 1 0.7 -0.3
v 1.1 0.7 -0.3
v 0.1 0.7 -0.7
v 0.2 0.7 -0.7
v 0.3 0.7 -0.7
v 0.4 0.7 -0.7
v 0.5 0.7 -0.7
v 0.6 0.7 -0.7
v 0.7 0.7 -0.7
v 0.8 0.7 -0.7
v 0.9 0.7 -0.7
v 1 0.7 -0.7
v 0 0.7 -0.8
v 1.1 0.7 -0.8
v 0.1 0.8 -0.3
v 0.2 0.8 -0.3
v 0.3 0.8 -0.3
v 0.4 0.8 -0.3
v 0.5 0.8 -0.3
v 0.6 0.8 -0.3
v 0.7 0.8 -0.3
v 0.8 0.8 -0.3
v 0.9 0.8 -0.3
v 1 0.8 -0.3
v 0.1 0.8 -0.7
v 0.2 0.8 -0.7
v 0.3 0.8 -0.7
v 0.4 0.8 -0.7
v 0.5 0.8 -0.7
v 0.6 0.8 -0.7
v 0.7 0.8 -0.7
v 0.8 0.8 -0.7
v 0.9 0.8 -0.7
v 1 0.8 -0.7

# faces
f 3/2/1 2/2/1 1/2/1
f 4/2/1 2/2/1 3/2/1
f 7/1/1 6/1/1 5/1/1
f 8/1/1 6/1/1 7/1/1
f 11/2/1 10/2/1 9/2/1
f 12/2/1 10/2/1 11/2/1
f 15/1/1 14/1/1 13/1/1
f 16/1/1 14/1/1 15/1/1
f 19/2/1 18/2/1 17/2/1
f 20/2/1 18/2/1 19/2/1
f 23/1/1 22/1/1 21/1/1
f 24/1/1 22/1/1 23/1/1
f 27/2/1 26/2/1 25/2/1
f 28/2/1 26/2/1 27/2/1
f 31/1/1 30/1/1 29/1/1
f 32/1/1 30/1/1 31/1/1
f 35/2/1 34/2/1 33/2/1
f 36/2/1 34/2/1 35/2/1
f 39/1/1 38/1/1 37/1/1
f 40/1/1 38/1/1 39/1/1
f 43/2/1 42/2/1 41/2/1
f 44/2/1 42/2/1 43/2/1
f 45/2/2 46/2/2 47/2/2
f 47/2/2 46/2/2 48/2/2
f 49/1/2 50/1/2 51/1/2
f 51/1/2 50/1/2 52/1/2
f 53/2/2 54/2/2 55/2/2
f 55/2/2 54/2/2 56/2/2
f 57/1/2 58/1/2 59/1/2
f 59/1/2 58/1/2 60/1/2
f 61/2/2 62/2/2 63/2/2
f 63/2/2 62/2/2 64/2/2
f 65/1/2 66/1/2 67/1/2
f 67/1/2 66/1/2 68/1/2
f 69/2/2 70/2/2 71/2/2
f 71/2/2 70/2/2 72/2/2
f 73/1/2 74/1/2 75/1/2
f 75/1/2 74/1/2 76/1/2
f 77/2/2 78/2/2 79/2/2
f 79/2/2 78/2/2 80/2/2
f 81/1/2 82/1/2 83/1/2
f 83/1/2 82/1/2 84/1/2
f 85/2/2 86/2/2 87/2/2
f 87/2/2 86/2/2 88/2/2
f 91/2/3 90/2/3 89/2/3
f 92/2/3 90/2/3 91/2/3
f 93/2/3 90/2/3 92/2/3
f 95/2/3 91/2/3 89/2/3
f 96/2/3 93/2/3 92/2/3
f 97/1/3 94/1/3 93/1/3
f 97/2/3 93/2/3 96/2/3
f 98/1/3 94/1/3 97/1/3
f 99/2/3 96/2/3 95/2/3
f 99/2/3 95/2/3 89/2/3
f 99/2/3 97/2/3 96/2/3
f 100/2/3 97/2/3 99/2/3
f 101/2/3 97/2/3 100/2/3
f 103/2/3 99/2/3 89/2/3
f 104/2/3 101/2/3 100/2/3
f 105/1/3 102/1/3 101/1/3
f 105/2/3 101/2/3 104/2/3
f 106/1/3 102/1/3 105/1/3
f 107/2/3 104/2/3 103/2/3
f 107/2/3 103/2/3 89/2/3
f 107/2/3 105/2/3 104/2/3
f 108/2/3 105/2/3 107/2/3
f 109/2/3 105/2/3 108/2/3
f 111/2/3 107/2/3 89/2/3
f 112/2/3 109/2/3 108/2/3
f 113/1/3 110/1/3 109/1/3
f 113/2/3 109/2/3 112/2/3
f 114/1/3 110/1/3 113/1/3
f 115/2/3 112/2/3 111/2/3
f 115/2/3 111/2/3 89/2/3
f 115/2/3 113/2/3 112/2/3
f 116/2/3 113/2/3 115/2/3
f 117/2/3 113/2/3 116/2/3
f 119/2/3 115/2/3 89/2/3
f 120/2/3 117/2/3 116/2/3
f 121/1/3 118/1/3 117/1/3
f 121/2/3 117/2/3 120/2/3
f 122/1/3 118/1/3 121/1/3
f 123/2/3 120/2/3 119/2/3
f 123/2/3 119/2/3 89/2/3
f 123/2/3 121/2/3 120/2/3
f 124/2/3 121/2/3 123/2/3
f 125/2/3 121/2/3 124/2/3
f 127/2/3 123/2/3 89/2/3
f 128/2/3 125/2/3 124/2/3
f 129/1/3 126/1/3 125/1/3
f 129/2/3 125/2/3 128/2/3
f 130/1/3 126/1/3 129/1/3
f 131/2/3 128/2/3 127/2/3
f 131/2/3 127/2/3 89/2/3
f 131/2/3 129/2/3 128/2/3
f 132/2/3 129/2/3 131/2/3
f 135/2/3 134/2/3 133/2/3
f 136/2/3 134/2/3 135/2/3
f 139/2/3 138/2/3 137/2/3
f 140/2/3 138/2/3 139/2/3
f 143/2/3 142/2/3 141/2/3
f 144/2/3 142/2/3 143/2/3
f 147/2/3 146/2/3 145/2/3
f 148/2/3 146/2/3 147/2/3
f 151/2/3 150/2/3 149/2/3
f 152/2/3 150/2/3 151/2/3
f 153/1/4 154/1/4 155/1/4
f 155/1/4 154/1/4 156/1/4
f 157/1/4 158/1/4 159/1/4
f 159/1/4 158/1/4 160/1/4
f 161/1/4 162/1/4 163/1/4
f 163/1/4 162/1/4 164/1/4
f 165/1/4 166/1/4 167/1/4
f 167/1/4 166/1/4 168/1/4
f 169/1/4 170/1/4 171/1/4
f 171/1/4 170/1/4 172/1/4
f 173/2/4 174/2/4 175/2/4
f 175/2/4 174/2/4 176/2/4
f 179/2/5 178/2/5 177/2/5
f 180/2/5 178/2/5 179/2/5
f 191/2/5 184/2/5 183/2/5
f 192/2/5 184/2/5 191/2/5
f 193/2/5 186/2/5 185/2/5
f 194/2/5 186/2/5 193/2/5
f 195/2/5 188/2/5 187/2/5
f 196/2/5 188/2/5 195/2/5
f 197/2/5 190/2/5 189/2/5
f 198/2/5 190/2/5 197/2/5
f 199/2/5 182/2/5 181/2/5
f 200/2/5 182/2/5 199/2/5
f 203/2/6 204/2/6 211/2/6
f 211/2/6 204/2/6 212/2/6
f 205/2/6 206/2/6 213/2/6
f 213/2/6 206/2/6 214/2/6
f 207/2/6 208/2/6 215/2/6
f 215/2/6 208/2/6 216/2/6
f 209/2/6 210/2/6 217/2/6
f 217/2/6 210/2/6 218/2/6
f 201/2/6 202/2/6 219/2/6
f 219/2/6 202/2/6 220/2/6
f 221/2/6 222/2/6 233/2/6
f 223/2/6 224/2/6 234/2/6
f 234/2/6 224/2/6 235/2/6
f 225/2/6 226/2/6 236/2/6
f 236/2/6 226/2/6 237/2/6
f 227/2/6 228/2/6 238/2/6
f 238/2/6 228/2/6 239/2/6
f 229/2/6 230/2/6 240/2/6
f 240/2/6 230/2/6 241/2/6
f 231/2/6 232/2/6 242/2/6
f 240/2/6 241/2/6 243/2/6
f 241/2/6 242/2/6 243/2/6
f 221/2/6 233/2/6 243/2/6
f 234/2/6 235/2/6 243/2/6
f 239/2/6 240/2/6 243/2/6
f 236/2/6 237/2/6 243/2/6
f 237/2/6 238/2/6 243/2/6
f 238/2/6 239/2/6 243/2/6
f 235/2/6 236/2/6 243/2/6
f 233/2/6 234/2/6 243/2/6
f 242/2/6 232/2/6 244/2/6
f 243/2/6 242/2/6 244/2/6
f 245/1/6 246/1/6 255/1/6
f 255/1/6 246/1/6 256/1/6
f 247/1/6 248/1/6 257/1/6
f 257/1/6 248/1/6 258/1/6
f 249/1/6 250/1/6 259/1/6
f 259/1/6 250/1/6 260/1/6
f 251/1/6 252/1/6 261/1/6
f 261/1/6 252/1/6 262/1/6
f 253/1/6 254/1/6 263/1/6
f 263/1/6 254/1/6 264/1/6
